<svg class="waves" id="visual" viewBox="0 0 300 100" width="300" height="100" xmlns="http://www.w3.org/2000/svg" xmlns:xlink="http://www.w3.org/1999/xlink" version="1.1"><path d="M0 63L7.2 62.5C14.3 62 28.7 61 43 62.5C57.3 64 71.7 68 86 68.5C100.3 69 114.7 66 128.8 65.2C143 64.3 157 65.7 171.2 67.2C185.3 68.7 199.7 70.3 214 69.2C228.3 68 242.7 64 257 62.8C271.3 61.7 285.7 63.3 292.8 64.2L300 65L300 101L292.8 101C285.7 101 271.3 101 257 101C242.7 101 228.3 101 214 101C199.7 101 185.3 101 171.2 101C157 101 143 101 128.8 101C114.7 101 100.3 101 86 101C71.7 101 57.3 101 43 101C28.7 101 14.3 101 7.2 101L0 101Z" fill="#aad6f5"></path><path d="M0 67L7.2 67.5C14.3 68 28.7 69 43 69.7C57.3 70.3 71.7 70.7 86 72.2C100.3 73.7 114.7 76.3 128.8 77C143 77.7 157 76.3 171.2 74.5C185.3 72.7 199.7 70.3 214 70.2C228.3 70 242.7 72 257 72.8C271.3 73.7 285.7 73.3 292.8 73.2L300 73L300 101L292.8 101C285.7 101 271.3 101 257 101C242.7 101 228.3 101 214 101C199.7 101 185.3 101 171.2 101C157 101 143 101 128.8 101C114.7 101 100.3 101 86 101C71.7 101 57.3 101 43 101C28.7 101 14.3 101 7.2 101L0 101Z" fill="#94cef5"></path><path d="M0 74L7.2 74.3C14.3 74.7 28.7 75.3 43 76.7C57.3 78 71.7 80 86 80.7C100.3 81.3 114.7 80.7 128.8 79.5C143 78.3 157 76.7 171.2 77.2C185.3 77.7 199.7 80.3 214 81C228.3 81.7 242.7 80.3 257 80.5C271.3 80.7 285.7 82.3 292.8 83.2L300 84L300 101L292.8 101C285.7 101 271.3 101 257 101C242.7 101 228.3 101 214 101C199.7 101 185.3 101 171.2 101C157 101 143 101 128.8 101C114.7 101 100.3 101 86 101C71.7 101 57.3 101 43 101C28.7 101 14.3 101 7.2 101L0 101Z" fill="#7dc6f6"></path><path d="M0 85L7.2 84.5C14.3 84 28.7 83 43 82.8C57.3 82.7 71.7 83.3 86 83.8C100.3 84.3 114.7 84.7 128.8 84.3C143 84 157 83 171.2 82.8C185.3 82.7 199.7 83.3 214 83C228.3 82.7 242.7 81.3 257 81.7C271.3 82 285.7 84 292.8 85L300 86L300 101L292.8 101C285.7 101 271.3 101 257 101C242.7 101 228.3 101 214 101C199.7 101 185.3 101 171.2 101C157 101 143 101 128.8 101C114.7 101 100.3 101 86 101C71.7 101 57.3 101 43 101C28.7 101 14.3 101 7.2 101L0 101Z" fill="#62bef7"></path><path d="M0 87L7.2 88.2C14.3 89.3 28.7 91.7 43 92.8C57.3 94 71.7 94 86 92.8C100.3 91.7 114.7 89.3 128.8 88.8C143 88.3 157 89.7 171.2 90.3C185.3 91 199.7 91 214 90.5C228.3 90 242.7 89 257 88.3C271.3 87.7 285.7 87.3 292.8 87.2L300 87L300 101L292.8 101C285.7 101 271.3 101 257 101C242.7 101 228.3 101 214 101C199.7 101 185.3 101 171.2 101C157 101 143 101 128.8 101C114.7 101 100.3 101 86 101C71.7 101 57.3 101 43 101C28.7 101 14.3 101 7.2 101L0 101Z" fill="#40b5f8"></path></svg>